<?xml version="1.0" encoding="UTF-8" standalone="no"?>
<svg xmlns="http://www.w3.org/2000/svg" width="1137.83" height="474.951" viewBox="0 0 1137.83 474.951">
  <path d="M1137.83,0H0V474.95l570.41-115.17,567.42,115.17Z" fill="#f5f5f5"/>
  <path d="M789.99,297.12s-23.57,16.67-11.9,27.54,25.11-16.67,25.11-16.67Z" fill="#2e8555"/>
  <path d="M696.95,311.71s-24.34,15.38-13.2,26.78,24.34-15.38,24.34-15.38Z" fill="#2e8555"/>
  <path d="M818.59,267.89s-24.34,15.38-13.2,26.78,24.34-15.38,24.34-15.38Z" fill="#2e8555"/>
  <path d="M767.42,365.76s-24.34,15.38-13.2,26.78,24.34-15.38,24.34-15.38Z" fill="#2e8555"/>
  <path d="M847.19,333.61s-24.34,15.38-13.2,26.78,24.34-15.38,24.34-15.38Z" fill="#2e8555"/>
  <path d="M877.33,387.66s-24.34,15.38-13.2,26.78,24.34-15.38,24.34-15.38Z" fill="#2e8555"/>
  <path d="M728.63,369.63s-24.34,15.38-13.2,26.78,24.34-15.38,24.34-15.38Z" fill="#2e8555"/>
  <path d="M915.11,348.35s-24.34,15.38-13.2,26.78,24.34-15.38,24.34-15.38Z" fill="#2e8555"/>
  <path d="M958.37,407.27s-24.34,15.38-13.2,26.78,24.34-15.38,24.34-15.38Z" fill="#2e8555"/>
  <path d="M1002.67,366.92s-24.34,15.38-13.2,26.78,24.34-15.38,24.34-15.38Z" fill="#2e8555"/>
  <path d="M1059.52,411.14s-24.34,15.38-13.2,26.78,24.34-15.38,24.34-15.38Z" fill="#2e8555"/>
  <path d="M747.83,254.69s-24.34,15.38-13.2,26.78,24.34-15.38,24.34-15.38Z" fill="#2e8555"/>
  <path d="M668.35,254.69s-24.34,15.38-13.2,26.78,24.34-15.38,24.34-15.38Z" fill="#2e8555"/>
  <path d="M645.82,304.94s-24.34,15.38-13.2,26.78,24.34-15.38,24.34-15.38Z" fill="#2e8555"/>
  <path d="M615.68,350.68s-24.34,15.38-13.2,26.78,24.34-15.38,24.34-15.38Z" fill="#2e8555"/>
  <path d="M589.28,398.99s-24.34,15.38-13.2,26.78,24.34-15.38,24.34-15.38Z" fill="#2e8555"/>
  <path d="M1002.67,366.92s-24.34,15.38-13.2,26.78,24.34-15.38,24.34-15.38Z" fill="#2e8555"/>
  <path d="M1059.52,411.14s-24.34,15.38-13.2,26.78,24.34-15.38,24.34-15.38Z" fill="#2e8555"/>
  <path d="M589.28,398.99s-24.34,15.38-13.2,26.78,24.34-15.38,24.34-15.38Z" fill="#2e8555"/>
</svg>