<?xml version="1.0" encoding="UTF-8" standalone="no"?>
<svg xmlns="http://www.w3.org/2000/svg" width="1137.83" height="474.951" viewBox="0 0 1137.83 474.951">
  <path d="M1137.83,0H0V474.95l570.41-115.17,567.42,115.17Z" fill="#f5f5f5"/>
  <path d="M632.39,155.48l-2.13,2.13a8.53,8.53,0,0,0,0,12.06l2.13,2.13a8.53,8.53,0,0,0,12.06,0l2.13-2.13a8.53,8.53,0,0,0,0-12.06l-2.13-2.13A8.53,8.53,0,0,0,632.39,155.48Z" fill="#2e8555"/>
  <path d="M683.74,155.48l-2.13,2.13a8.53,8.53,0,0,0,0,12.06l2.13,2.13a8.53,8.53,0,0,0,12.06,0l2.13-2.13a8.53,8.53,0,0,0,0-12.06l-2.13-2.13A8.53,8.53,0,0,0,683.74,155.48Z" fill="#2e8555"/>
  <path d="M735.09,155.48,733,157.61a8.53,8.53,0,0,0,0,12.06l2.13,2.13a8.53,8.53,0,0,0,12.06,0l2.13-2.13a8.53,8.53,0,0,0,0-12.06l-2.13-2.13A8.53,8.53,0,0,0,735.09,155.48Z" fill="#2e8555"/>
  <path d="M683.74,104.13l-2.13,2.13a8.53,8.53,0,0,0,0,12.06l2.13,2.13a8.53,8.53,0,0,0,12.06,0l2.13-2.13a8.53,8.53,0,0,0,0-12.06l-2.13-2.13A8.53,8.53,0,0,0,683.74,104.13Z" fill="#2e8555"/>
  <path d="M735.09,104.13,733,106.26a8.53,8.53,0,0,0,0,12.06l2.13,2.13a8.53,8.53,0,0,0,12.06,0l2.13-2.13a8.53,8.53,0,0,0,0-12.06l-2.13-2.13A8.53,8.53,0,0,0,735.09,104.13Z" fill="#2e8555"/>
  <path d="M786.44,104.13l-2.13,2.13a8.53,8.53,0,0,0,0,12.06l2.13,2.13a8.53,8.53,0,0,0,12.06,0l2.13-2.13a8.53,8.53,0,0,0,0-12.06l-2.13-2.13A8.53,8.53,0,0,0,786.44,104.13Z" fill="#2e8555"/>
  <path d="M735.09,52.78,733,54.91a8.53,8.53,0,0,0,0,12.06l2.13,2.13a8.53,8.53,0,0,0,12.06,0l2.13-2.13a8.53,8.53,0,0,0,0-12.06l-2.13-2.13A8.53,8.53,0,0,0,735.09,52.78Z" fill="#2e8555"/>
  <path d="M786.44,52.78l-2.13,2.13a8.53,8.53,0,0,0,0,12.06l2.13,2.13a8.53,8.53,0,0,0,12.06,0l2.13-2.13a8.53,8.53,0,0,0,0-12.06l-2.13-2.13A8.53,8.53,0,0,0,786.44,52.78Z" fill="#2e8555"/>
  <path d="M837.79,52.78l-2.13,2.13a8.53,8.53,0,0,0,0,12.06l2.13,2.13a8.53,8.53,0,0,0,12.06,0l2.13-2.13a8.53,8.53,0,0,0,0-12.06l-2.13-2.13A8.53,8.53,0,0,0,837.79,52.78Z" fill="#2e8555"/>
  <path d="M581.04,206.83l-2.13,2.13a8.53,8.53,0,0,0,0,12.06l2.13,2.13a8.53,8.53,0,0,0,12.06,0l2.13-2.13a8.53,8.53,0,0,0,0-12.06l-2.13-2.13A8.53,8.53,0,0,0,581.04,206.83Z" fill="#2e8555"/>
  <path d="M632.39,206.83l-2.13,2.13a8.53,8.53,0,0,0,0,12.06l2.13,2.13a8.53,8.53,0,0,0,12.06,0l2.13-2.13a8.53,8.53,0,0,0,0-12.06l-2.13-2.13A8.53,8.53,0,0,0,632.39,206.83Z" fill="#2e8555"/>
  <path d="M683.74,206.83l-2.13,2.13a8.53,8.53,0,0,0,0,12.06l2.13,2.13a8.53,8.53,0,0,0,12.06,0l2.13-2.13a8.53,8.53,0,0,0,0-12.06l-2.13-2.13A8.53,8.53,0,0,0,683.74,206.83Z" fill="#2e8555"/>
  <path d="M529.69,258.18l-2.13,2.13a8.53,8.53,0,0,0,0,12.06l2.13,2.13a8.53,8.53,0,0,0,12.06,0l2.13-2.13a8.53,8.53,0,0,0,0-12.06l-2.13-2.13A8.53,8.53,0,0,0,529.69,258.18Z" fill="#2e8555"/>
  <path d="M581.04,258.18l-2.13,2.13a8.53,8.53,0,0,0,0,12.06l2.13,2.13a8.53,8.53,0,0,0,12.06,0l2.13-2.13a8.53,8.53,0,0,0,0-12.06l-2.13-2.13A8.53,8.53,0,0,0,581.04,258.18Z" fill="#2e8555"/>
  <path d="M632.39,258.18l-2.13,2.13a8.53,8.53,0,0,0,0,12.06l2.13,2.13a8.53,8.53,0,0,0,12.06,0l2.13-2.13a8.53,8.53,0,0,0,0-12.06l-2.13-2.13A8.53,8.53,0,0,0,632.39,258.18Z" fill="#2e8555"/>
  <path d="M478.34,309.53l-2.13,2.13a8.53,8.53,0,0,0,0,12.06l2.13,2.13a8.53,8.53,0,0,0,12.06,0l2.13-2.13a8.53,8.53,0,0,0,0-12.06l-2.13-2.13A8.53,8.53,0,0,0,478.34,309.53Z" fill="#2e8555"/>
  <path d="M529.69,309.53l-2.13,2.13a8.53,8.53,0,0,0,0,12.06l2.13,2.13a8.53,8.53,0,0,0,12.06,0l2.13-2.13a8.53,8.53,0,0,0,0-12.06l-2.13-2.13A8.53,8.53,0,0,0,529.69,309.53Z" fill="#2e8555"/>
  <path d="M581.04,309.53l-2.13,2.13a8.53,8.53,0,0,0,0,12.06l2.13,2.13a8.53,8.53,0,0,0,12.06,0l2.13-2.13a8.53,8.53,0,0,0,0-12.06l-2.13-2.13A8.53,8.53,0,0,0,581.04,309.53Z" fill="#2e8555"/>
  <path d="M426.99,360.88l-2.13,2.13a8.53,8.53,0,0,0,0,12.06l2.13,2.13a8.53,8.53,0,0,0,12.06,0l2.13-2.13a8.53,8.53,0,0,0,0-12.06l-2.13-2.13A8.53,8.53,0,0,0,426.99,360.88Z" fill="#2e8555"/>
  <path d="M478.34,360.88l-2.13,2.13a8.53,8.53,0,0,0,0,12.06l2.13,2.13a8.53,8.53,0,0,0,12.06,0l2.13-2.13a8.53,8.53,0,0,0,0-12.06l-2.13-2.13A8.53,8.53,0,0,0,478.34,360.88Z" fill="#2e8555"/>
  <path d="M529.69,360.88l-2.13,2.13a8.53,8.53,0,0,0,0,12.06l2.13,2.13a8.53,8.53,0,0,0,12.06,0l2.13-2.13a8.53,8.53,0,0,0,0-12.06l-2.13-2.13A8.53,8.53,0,0,0,529.69,360.88Z" fill="#2e8555"/>
  <path d="M375.64,412.23l-2.13,2.13a8.53,8.53,0,0,0,0,12.06l2.13,2.13a8.53,8.53,0,0,0,12.06,0l2.13-2.13a8.53,8.53,0,0,0,0-12.06l-2.13-2.13A8.53,8.53,0,0,0,375.64,412.23Z" fill="#2e8555"/>
  <path d="M426.99,412.23l-2.13,2.13a8.53,8.53,0,0,0,0,12.06l2.13,2.13a8.53,8.53,0,0,0,12.06,0l2.13-2.13a8.53,8.53,0,0,0,0-12.06l-2.13-2.13A8.53,8.53,0,0,0,426.99,412.23Z" fill="#2e8555"/>
  <path d="M478.34,412.23l-2.13,2.13a8.53,8.53,0,0,0,0,12.06l2.13,2.13a8.53,8.53,0,0,0,12.06,0l2.13-2.13a8.53,8.53,0,0,0,0-12.06l-2.13-2.13A8.53,8.53,0,0,0,478.34,412.23Z" fill="#2e8555"/>
</svg>